HIERARCHY
ROOT Hips
{
	OFFSET 0.00000 0.00000 0.00000
	CHANNELS 6 Xposition Yposition Zposition Zrotation Yrotation Xrotation 
	JOINT LHipJoint
	{
		OFFSET 0 0 0
		CHANNELS 3 Zrotation Yrotation Xrotation
		JOINT LeftUpLeg
		{
			OFFSET 1.58895 -1.83665 0.71753
			CHANNELS 3 Zrotation Yrotation Xrotation
			JOINT LeftLeg
			{
				OFFSET 2.50528 -6.88321 0.00000
				CHANNELS 3 Zrotation Yrotation Xrotation
				JOINT LeftFoot
				{
					OFFSET 2.63244 -7.23257 0.00000
					CHANNELS 3 Zrotation Yrotation Xrotation
					JOINT LeftToeBase
					{
						OFFSET 0.23691 -0.65090 1.72750
						CHANNELS 3 Zrotation Yrotation Xrotation
						End Site
						{
							OFFSET 0.00000 -0.00000 0.92561
						}
					}
				}
			}
		}
	}
	JOINT RHipJoint
	{
		OFFSET 0 0 0
		CHANNELS 3 Zrotation Yrotation Xrotation
		JOINT RightUpLeg
		{
			OFFSET -1.51435 -1.83665 0.71753
			CHANNELS 3 Zrotation Yrotation Xrotation
			JOINT RightLeg
			{
				OFFSET -2.54551 -6.99375 0.00000
				CHANNELS 3 Zrotation Yrotation Xrotation
				JOINT RightFoot
				{
					OFFSET -2.66027 -7.30903 0.00000
					CHANNELS 3 Zrotation Yrotation Xrotation
					JOINT RightToeBase
					{
						OFFSET -0.22981 -0.63138 2.03959
						CHANNELS 3 Zrotation Yrotation Xrotation
						End Site
						{
							OFFSET -0.00000 -0.00000 1.07060
						}
					}
				}
			}
		}
	}
	JOINT LowerBack
	{
		OFFSET 0 0 0
		CHANNELS 3 Zrotation Yrotation Xrotation
		JOINT Spine
		{
			OFFSET -0.02651 1.86275 -0.11152
			CHANNELS 3 Zrotation Yrotation Xrotation
			JOINT Spine1
			{
				OFFSET 0.01019 1.86224 0.04087
				CHANNELS 3 Zrotation Yrotation Xrotation
				JOINT Neck
				{
					OFFSET 0 0 0
					CHANNELS 3 Zrotation Yrotation Xrotation
					JOINT Neck1
					{
						OFFSET -0.01926 1.80512 0.08867
						CHANNELS 3 Zrotation Yrotation Xrotation
						JOINT Head
						{
							OFFSET 0.05516 1.76451 -0.38475
							CHANNELS 3 Zrotation Yrotation Xrotation
							End Site
							{
								OFFSET 0.01592 1.82587 -0.14001
							}
						}
					}
				}
				JOINT LeftShoulder
				{
					OFFSET 0 0 0
					CHANNELS 3 Zrotation Yrotation Xrotation
					JOINT LeftArm
					{
						OFFSET 3.47116 1.51376 0.14491
						CHANNELS 3 Zrotation Yrotation Xrotation
						JOINT LeftForeArm
						{
							OFFSET 4.78095 -0.00000 0.00000
							CHANNELS 3 Zrotation Yrotation Xrotation
							JOINT LeftHand
							{
								OFFSET 3.58615 -0.00000 -0.00000
								CHANNELS 3 Zrotation Yrotation Xrotation
								JOINT LeftFingerBase
								{
									OFFSET 0 0 0
									CHANNELS 3 Zrotation Yrotation Xrotation
									JOINT LeftHandIndex1
									{
										OFFSET 0.65981 -0.00000 0.00000
										CHANNELS 3 Zrotation Yrotation Xrotation
										End Site
										{
											OFFSET 0.53196 -0.00000 0.00000
										}
									}
								}
								JOINT LThumb
								{
									OFFSET 0 0 0
									CHANNELS 3 Zrotation Yrotation Xrotation
									End Site
									{
										OFFSET 0.54008 -0.00000 0.54008
									}
								}
							}
						}
					}
				}
				JOINT RightShoulder
				{
					OFFSET 0 0 0
					CHANNELS 3 Zrotation Yrotation Xrotation
					JOINT RightArm
					{
						OFFSET -3.31725 1.61216 0.35156
						CHANNELS 3 Zrotation Yrotation Xrotation
						JOINT RightForeArm
						{
							OFFSET -4.48913 -0.00000 0.00000
							CHANNELS 3 Zrotation Yrotation Xrotation
							JOINT RightHand
							{
								OFFSET -3.70510 -0.00000 0.00000
								CHANNELS 3 Zrotation Yrotation Xrotation
								JOINT RightFingerBase
								{
									OFFSET 0 0 0
									CHANNELS 3 Zrotation Yrotation Xrotation
									JOINT RightHandIndex1
									{
										OFFSET -0.44914 -0.00000 0.00000
										CHANNELS 3 Zrotation Yrotation Xrotation
										End Site
										{
											OFFSET -0.36211 -0.00000 0.00000
										}
									}
								}
								JOINT RThumb
								{
									OFFSET 0 0 0
									CHANNELS 3 Zrotation Yrotation Xrotation
									End Site
									{
										OFFSET -0.36763 -0.00000 0.36763
									}
								}
							}
						}
					}
				}
			}
		}
	}
}
MOTION
Frames: 10
Frame Time: .0083333
-0.4725 18.6775 5.8637 0 0 0 0 0 0 -21 0 0 0 0 0 0 0 0 0 0 0 0 0 0 21 0 0 0 0 0 0 0 0 0 0 0 0 0 0 0 0 0 0 0 0 0 0 -16 0 0 21 0 0 11 0 0 0 -8 0 0 0 0 0 0 0 0 0 0 0 0 0 0 0 0 0 0 0 0 8 0 0 0 0 0 0 0 0 0 0 0 0 0 0 0 0 0
-0.4725 18.6775 5.8637 -2.2689 -3.8998 3.0836 0.0000 0.0000 0.0000 -12.6272 -4.6700 -3.2903 1.4048 7.4972 21.1969 1.9056 7.2404 -29.5097 8.0898 -16.1849 -52.8854 0.0000 0.0000 0.0000 0.0000 0.0000 0.0000 0.0000 0.0000 0.0000 -0.0000 -0.0000 0.0000 -0.0000 -0.0000 0.0000 0.5074 0.7918 1.6522 0.6194 1.1042 -3.6999 0.2918 0.5424 -4.7446 -1.2797 -1.6750 -9.8408 2.3088 -2.7071 24.7260 0.7162 -1.1392 9.4500 0.0000 0.0000 0.0000 -91.4508 13.8211 28.7933 20.6571 -31.4259 -5.8701 -0.0000 -0.0000 8.3412 6.8928 -24.4763 -2.8673 -7.1250 0.0000 -0.0000 -13.7774 5.9311 12.6604 0.0000 0.0000 0.0000 90.3179 -20.5504 23.1697 -25.2352 36.4434 -8.4292 0.0000 0.0000 10.6957 -7.4355 -35.5111 4.3351 7.1250 -0.0000 -0.0000 31.7237 -62.9194 -14.5557
-0.4704 18.6773 5.8587 -2.2691 -3.9644 3.0312 0.0000 0.0000 0.0000 -12.6221 -4.4938 -3.3392 1.4127 7.5175 21.2578 1.8898 7.2495 -29.4125 8.1305 -16.2144 -53.0315 0.0000 0.0000 0.0000 0.0000 0.0000 0.0000 0.0000 0.0000 0.0000 -0.0000 -0.0000 0.0000 -0.0000 -0.0000 0.0000 0.4847 0.7892 1.7816 0.6275 1.1015 -3.7057 0.3112 0.5419 -4.8250 -1.2834 -1.6722 -9.8141 2.3203 -2.7059 24.7256 0.7211 -1.1382 9.4449 0.0000 -0.0000 0.0000 -91.4639 13.9030 28.8403 20.7998 -31.5939 -5.9447 -0.0000 -0.0000 8.4887 6.7176 -23.9249 -2.7347 -7.1250 0.0000 -0.0000 -13.8802 6.4836 12.6090 0.0000 -0.0000 0.0000 90.3335 -20.5618 23.0805 -25.4128 36.6230 -8.5350 0.0000 0.0000 10.7439 -6.9114 -35.2161 3.9985 7.1250 -0.0000 -0.0000 31.9292 -62.5383 -14.3743
-0.4687 18.6760 5.8537 -2.2983 -4.0015 2.9760 0.0000 0.0000 0.0000 -12.5931 -4.4231 -3.3345 1.4192 7.5338 21.3068 1.8860 7.2564 -29.3920 8.1307 -16.2145 -53.0321 0.0000 0.0000 0.0000 0.0000 0.0000 0.0000 0.0000 0.0000 0.0000 -0.0000 -0.0000 0.0000 -0.0000 -0.0000 0.0000 0.4880 0.7760 1.9048 0.6436 1.0859 -3.7065 0.3251 0.5341 -4.8964 -1.2492 -1.6534 -9.7735 2.2999 -2.6812 24.7082 0.7113 -1.1263 9.4298 -0.0000 -0.0000 0.0000 -91.4599 13.9827 28.8739 20.8573 -31.6614 -5.9749 -0.0000 -0.0000 8.4144 6.7779 -23.8906 -2.7557 -7.1250 0.0000 -0.0000 -13.8433 6.5116 12.5657 -0.0000 -0.0000 0.0000 90.3668 -20.6256 23.0740 -25.5228 36.7335 -8.6006 0.0000 0.0000 10.9135 -6.8276 -35.0888 3.9373 7.1250 -0.0000 -0.0000 31.8735 -62.4109 -14.2508
-0.4674 18.6741 5.8487 -2.3206 -4.0216 2.9169 0.0000 0.0000 0.0000 -12.5609 -4.3467 -3.3326 1.4251 7.5488 21.3519 1.8931 7.1514 -29.3756 8.1162 -16.2040 -52.9801 0.0000 0.0000 0.0000 0.0000 0.0000 0.0000 0.0000 0.0000 0.0000 -0.0000 -0.0000 0.0000 -0.0000 -0.0000 0.0000 0.5026 0.7691 2.0282 0.6523 1.0789 -3.7005 0.3246 0.5301 -4.9604 -1.2640 -1.6601 -9.7676 2.3377 -2.6979 24.7219 0.7250 -1.1315 9.4346 0.0000 0.0000 0.0000 -91.4486 13.9980 28.8880 20.8607 -31.6654 -5.9766 -0.0000 -0.0000 8.4188 6.7827 -23.9495 -2.7641 -7.1250 0.0000 -0.0000 -13.8407 6.4539 12.5791 0.0000 0.0000 0.0000 90.3782 -20.6675 23.0895 -25.5690 36.7800 -8.6283 0.0000 0.0000 10.8672 -6.6826 -35.2299 3.8666 7.1250 -0.0000 -0.0000 32.1779 -62.4912 -14.4631
-0.4668 18.6726 5.8440 -2.3240 -4.0574 2.8393 0.0000 0.0000 0.0000 -12.5481 -4.2134 -3.3265 1.4295 7.5600 21.3855 1.8843 7.1172 -29.2981 8.1339 -16.2169 -53.0436 0.0000 0.0000 0.0000 0.0000 0.0000 0.0000 0.0000 0.0000 0.0000 -0.0000 -0.0000 0.0000 -0.0000 -0.0000 0.0000 0.4876 0.7685 2.1419 0.6571 1.0785 -3.6746 0.3365 0.5305 -4.9985 -1.3154 -1.6715 -9.7529 2.4226 -2.7249 24.7029 0.7602 -1.1400 9.4277 0.0000 -0.0000 0.0000 -91.4510 13.9626 28.8353 20.8462 -31.6484 -5.9690 -0.0000 -0.0000 8.5300 6.7020 -23.9649 -2.7326 -7.1250 0.0000 -0.0000 -13.8899 6.4461 12.6288 0.0000 -0.0000 0.0000 90.3810 -20.6683 23.1597 -25.5884 36.7994 -8.6399 0.0000 0.0000 10.7114 -7.3160 -35.3438 4.2475 7.1250 -0.0000 -0.0000 31.6578 -62.7489 -14.3955
-0.4670 18.6718 5.8395 -2.3119 -4.0975 2.7576 0.0000 0.0000 0.0000 -12.5573 -4.0931 -3.3059 1.4323 7.5672 21.4071 1.8658 7.1776 -29.2137 8.1607 -16.2362 -53.1396 0.0000 0.0000 0.0000 0.0000 0.0000 0.0000 0.0000 0.0000 0.0000 -0.0000 -0.0000 0.0000 -0.0000 -0.0000 0.0000 0.4304 0.7696 2.2445 0.6618 1.0783 -3.6422 0.3722 0.5326 -5.0243 -1.3243 -1.6721 -9.7110 2.4597 -2.7320 24.6387 0.7739 -1.1410 9.3979 -0.0000 0.0000 0.0000 -91.4440 13.9401 28.8425 20.8501 -31.6529 -5.9711 -0.0000 -0.0000 8.5702 6.7008 -23.8547 -2.7203 -7.1250 0.0000 -0.0000 -13.8901 6.5534 12.5993 -0.0000 0.0000 0.0000 90.4086 -20.6777 23.1605 -25.6142 36.8252 -8.6554 0.0000 0.0000 10.6951 -8.5096 -35.2873 4.9400 7.1250 -0.0000 -0.0000 30.3642 -63.0108 -13.9346
-0.4665 18.6714 5.8354 -2.2773 -4.0959 2.7101 0.0000 0.0000 0.0000 -12.5861 -4.0136 -3.3195 1.4353 7.5747 21.4295 1.8528 7.1873 -29.1344 8.1768 -16.2478 -53.1972 0.0000 0.0000 0.0000 0.0000 0.0000 0.0000 0.0000 0.0000 0.0000 -0.0000 -0.0000 0.0000 -0.0000 -0.0000 0.0000 0.3772 0.7645 2.3194 0.6474 1.0689 -3.6303 0.3867 0.5295 -5.0553 -1.2905 -1.6964 -9.7038 2.4219 -2.7631 24.6156 0.7517 -1.1569 9.3881 -0.0000 -0.0000 0.0000 -91.3943 13.9409 28.9632 20.8441 -31.6459 -5.9679 -0.0000 -0.0000 8.4883 6.8130 -23.8280 -2.7633 -7.1250 0.0000 -0.0000 -13.8217 6.5693 12.5290 -0.0000 -0.0000 0.0000 90.4598 -20.7029 23.1268 -25.6083 36.8192 -8.6518 0.0000 0.0000 10.7736 -8.6272 -35.2212 5.0008 7.1250 -0.0000 -0.0000 30.1688 -62.9854 -13.8183
-0.4655 18.6706 5.8315 -2.2543 -4.0829 2.6721 0.0000 0.0000 0.0000 -12.6022 -3.9740 -3.3290 1.4395 7.5852 21.4611 1.8547 7.0955 -29.0922 8.1650 -16.2393 -53.1549 0.0000 0.0000 0.0000 0.0000 0.0000 0.0000 0.0000 0.0000 0.0000 -0.0000 -0.0000 0.0000 -0.0000 -0.0000 0.0000 0.3549 0.7530 2.3907 0.6317 1.0522 -3.6283 0.3832 0.5217 -5.0938 -1.2859 -1.7293 -9.7305 2.3993 -2.8056 24.6380 0.7383 -1.1784 9.4016 -0.0000 -0.0000 0.0000 -91.3361 13.9358 29.0644 20.8169 -31.6140 -5.9537 -0.0000 -0.0000 8.4227 6.9095 -23.9193 -2.8128 -7.1250 0.0000 -0.0000 -13.7634 6.4716 12.4995 -0.0000 -0.0000 0.0000 90.5054 -20.7148 23.1292 -25.5780 36.7889 -8.6337 0.0000 0.0000 10.8161 -7.4868 -35.2393 4.3363 7.1250 -0.0000 -0.0000 31.3657 -62.7055 -14.2167
-0.4650 18.6693 5.8267 -2.2762 -4.0694 2.6143 0.0000 0.0000 0.0000 -12.5669 -3.9314 -3.3198 1.4448 7.5986 21.5015 1.8637 6.9436 -29.0605 8.1450 -16.2249 -53.0832 0.0000 0.0000 0.0000 0.0000 0.0000 0.0000 0.0000 0.0000 0.0000 -0.0000 -0.0000 0.0000 -0.0000 -0.0000 0.0000 0.3461 0.7319 2.5049 0.6579 1.0258 -3.6238 0.4155 0.5094 -5.1549 -1.3345 -1.7346 -9.7127 2.4116 -2.8059 24.6066 0.7508 -1.1821 9.3880 -0.0000 -0.0000 0.0000 -91.3645 13.9191 29.0264 20.7953 -31.5886 -5.9423 -0.0000 -0.0000 8.4405 6.8853 -23.9624 -2.8077 -7.1250 0.0000 -0.0000 -13.7784 6.4319 12.5248 -0.0000 -0.0000 0.0000 90.4926 -20.7387 23.1647 -25.5693 36.7803 -8.6285 0.0000 0.0000 10.8793 -6.7995 -35.1803 3.9298 7.1250 -0.0000 -0.0000 32.0037 -62.4799 -14.3676
